<svg
  xmlns="http://www.w3.org/2000/svg"
  xmlns:xlink="http://www.w3.org/1999/xlink"
  width="255"
  height="255"
  viewBox="0 0 70 70"
>
  <defs>
    <path id="a" d="M4 0h61c4 0 5 1 5 5v60c0 4-1 5-5 5H4c-3 0-4-1-4-5V5c0-4 1-5 4-5z" />
    <linearGradient id="c" x1="100%" x2="0%" y1="0%" y2="100%">
      <stop offset="0%" stop-color="#0060A7" />
      <stop offset="100%" stop-color="#AFFDB4" />
    </linearGradient>

  </defs>
  <g fill="none" fill-rule="evenodd">
    <mask id="b" fill="#fff">
      <use xlink:href="#a" />
    </mask>
    <g mask="url(#b)">
      <path fill="url(#c)" d="M0 0H70V70H0z" />
      <path fill="#FFF" fill-opacity=".383" d="M4 1h61c2.667 0 4.333.667 5 2V0H0v3c.667-1.333 2-2 4-2z" />
      <path fill="#000" fill-opacity=".383" d="M4 69h61c2.667 0 4.333-1 5-3v4H0v-4c.667 2 2 3 4 3z" />
      <!--            <svg fill="#FFF" x="10" y="11" width="50" height="50" viewBox="0 0 128 128">-->
      <!--                <use fill="#000" fill-rule="nonzero" opacity=".3" xlink:href="#d"/>-->
      <!--            </svg>-->
      <svg fill="#FFF" x="8" y="10" width="50" height="50" viewBox="0 0 128 128">
        <use fill="#FFF" fill-rule="nonzero" xlink:href="#d" />
      </svg>
    </g>
  </g>
       <svg xmlns="http://www.w3.org/2000/svg" x="12" y="12" width="45"
      height="45" viewBox="0 0 384 512">
        <path fill="#FFF" d="M64 464c-8.8 0-16-7.2-16-16L48 64c0-8.8 7.2-16 16-16l160 0 0 80c0 17.7 14.3 32 32 32l80 0 0 288c0 8.8-7.2 16-16 16L64 464zM64 0C28.7 0 0 28.7 0 64L0 448c0 35.3 28.7 64 64 64l256 0c35.3 0 64-28.7 64-64l0-293.5c0-17-6.7-33.3-18.7-45.3L274.7 18.7C262.7 6.7 246.5 0 229.5 0L64 0zm56 256c-13.3 0-24 10.7-24 24s10.7 24 24 24l144 0c13.3 0 24-10.7 24-24s-10.7-24-24-24l-144 0zm0 96c-13.3 0-24 10.7-24 24s10.7 24 24 24l144 0c13.3 0 24-10.7 24-24s-10.7-24-24-24l-144 0z"/>
    </svg>
</svg>
